<?xml version="1.0" standalone="no"?><!DOCTYPE svg PUBLIC "-//W3C//DTD SVG 1.1//EN" "http://www.w3.org/Graphics/SVG/1.1/DTD/svg11.dtd"><svg t="1577277379399" class="icon" viewBox="0 0 1024 1024" version="1.1" xmlns="http://www.w3.org/2000/svg" p-id="866" xmlns:xlink="http://www.w3.org/1999/xlink" width="200" height="200"><defs><style type="text/css"></style></defs><path d="M355.225909 65.534576l250.838955 0.130983 0 29.457916L375.29499 95.123474c0 0-27.025517 112.919792-78.45177 176.741353l0 170.055071L262.635117 508.86766l0 199.50787c0 0 63.627133 62.263066 73.206302 64.270792l459.055161 0 4.104481 27.448142L328.998571 800.094464c0 0-41.049928-12.947893-93.730755-79.000262L235.267816 504.85016l33.524534-63.600527L268.792351 257.139451C268.792351 257.139451 321.663512 193.57781 355.225909 65.534576z" p-id="867"></path><path d="M413.15118 772.646322" p-id="868"></path><path d="M389.890406 585.189929 773.002944 585.189929 794.895557 772.646322 766.158049 772.646322 746.682485 613.349269 425.468716 613.308337 445.991122 772.646322 413.15118 772.646322Z" p-id="869"></path><path d="M412.695808 149.575644l24.172539 41.060161 0.224104 394.553101-16.532535 0-0.093121-394.102846-27.366278-46.864354c-1.824555-9.8176 7.754614-11.604292 7.754614-11.604292l131.340327 0 0 17.408485L412.695808 149.575644z" p-id="870"></path><path d="M469.242685 452.630844 469.242685 271.864828c0 0 8.890484-42.843784 41.941228-49.5403l104.459097 0c0 0 28.049846 1.341554 35.112706 49.5403l0 179.427532c0 0-11.849886 37.490869-44.689828 45.524846l-88.940658 0C517.125229 496.817206 488.393861 496.817206 469.242685 452.630844l-13.677511 0c0 0 10.94119 47.198975 55.619762 59.361993l94.881974 0c0 0 50.28629-9.485025 58.382689-59.808154L664.449599 271.864828c0 0-7.297197-58.910715-43.786249-62.48103l-113.585965-1.340531c0 0-40.569998 7.587815-51.511187 63.821561l0 180.766017L469.242685 452.630844z" p-id="871"></path><path d="M574.761927 422.119947l0 0 0 55.94108 0 0 0-55.94108Z" p-id="872"></path><path d="M595.803149 508.198417l16.762779 0 0 78.33102-16.762779 0 0-78.33102Z" p-id="873"></path><path d="M335.157851 889.807718 717.820134 889.807718 717.820134 911.901922 358.873995 911.899876 358.873995 936.001807 718.268342 936.001807 718.268342 911.899876 718.268342 889.807718 742.897276 889.807718 742.897276 960.103738 335.157851 960.103738Z" p-id="874"></path><path d="M418.16845 855.549473 664.447553 855.549473 664.447553 889.807718 691.358459 889.807718 691.358459 829.776484 392.870274 829.776484 392.870274 889.807718 418.16845 889.807718Z" p-id="875"></path><path d="M606.065887 95.123474 606.065887 65.665559c0 0 109.476367 57.576323 119.04428 111.135146l17.787108 408.388201-24.62791 0-19.161409-412.405701C699.107957 172.784228 664.447553 129.995703 606.065887 95.123474z" p-id="876"></path><path d="M523.511683 338.28047c0 0 2.27788 50.970882 52.689013 55.568596 16.942881 1.545192 58.143235-9.952676 59.738569-54.263881l24.861224-0.772596c0 0 0.692778 25.709545-20.045545 50.458205-20.550035 24.529673-49.738821 29.54285-61.153802 29.217439-17.771759-0.50756-38.555108-6.682189-51.795667-18.280342-19.811208-17.35118-30.179346-43.333948-29.15297-61.394279L523.511683 338.28047z" p-id="877"></path><path d="M635.939265 339.585185c0 0 1.372254-48.406476-52.691059-55.568596-16.86204-2.235924-57.230446 9.506515-59.400878 55.035454l-25.197892 0c0 0-1.538029-33.534767 26.230408-57.588603 13.909801-12.050454 28.946262-21.989827 54.970986-22.086018 22.339798-0.083911 43.548842 10.704806 51.804876 18.457374 19.659759 18.452257 29.213345 43.576471 29.142737 61.217247L635.939265 339.585185z" p-id="878"></path></svg>